<svg xmlns="http://www.w3.org/2000/svg" width="50" height="50" viewBox="0 0 50 50" fill="none">
  <path d="M40.637 14.6699H9.36304C9.09782 14.6699 8.84347 14.5646 8.65593 14.377C8.46839 14.1895 8.36304 13.9351 8.36304 13.6699C8.36304 13.4047 8.46839 13.1504 8.65593 12.9628C8.84347 12.7753 9.09782 12.6699 9.36304 12.6699H40.637C40.9023 12.6699 41.1566 12.7753 41.3441 12.9628C41.5317 13.1504 41.637 13.4047 41.637 13.6699C41.637 13.9351 41.5317 14.1895 41.3441 14.377C41.1566 14.5646 40.9023 14.6699 40.637 14.6699Z" fill="white"/>
  <path d="M40.637 26H9.36304C9.09782 26 8.84347 25.8946 8.65593 25.7071C8.46839 25.5196 8.36304 25.2652 8.36304 25C8.36304 24.7348 8.46839 24.4804 8.65593 24.2929C8.84347 24.1054 9.09782 24 9.36304 24H40.637C40.9023 24 41.1566 24.1054 41.3441 24.2929C41.5317 24.4804 41.637 24.7348 41.637 25C41.637 25.2652 41.5317 25.5196 41.3441 25.7071C41.1566 25.8946 40.9023 26 40.637 26Z" fill="white"/>
  <path d="M40.637 37.3301H9.36304C9.09782 37.3301 8.84347 37.2247 8.65593 37.0372C8.46839 36.8496 8.36304 36.5953 8.36304 36.3301C8.36304 36.0649 8.46839 35.8105 8.65593 35.623C8.84347 35.4354 9.09782 35.3301 9.36304 35.3301H40.637C40.9023 35.3301 41.1566 35.4354 41.3441 35.623C41.5317 35.8105 41.637 36.0649 41.637 36.3301C41.637 36.5953 41.5317 36.8496 41.3441 37.0372C41.1566 37.2247 40.9023 37.3301 40.637 37.3301Z" fill="white"/>
</svg>