<svg xmlns="http://www.w3.org/2000/svg" width="50" height="50" viewBox="0 0 50 50" fill="none">
  <path d="M36.2354 14.3059L14.1213 36.42C13.9338 36.6075 13.6794 36.7129 13.4142 36.7129C13.149 36.7129 12.8946 36.6075 12.7071 36.42C12.5196 36.2325 12.4142 35.9781 12.4142 35.7129C12.4142 35.4477 12.5196 35.1933 12.7071 35.0058L34.8212 12.8917C35.0087 12.7042 35.2631 12.5988 35.5283 12.5988C35.7935 12.5988 36.0478 12.7042 36.2354 12.8917C36.4229 13.0793 36.5283 13.3336 36.5283 13.5988C36.5283 13.864 36.4229 14.1184 36.2354 14.3059Z" fill="white"/>
  <path d="M34.9133 36.2354L12.7992 14.1213C12.6117 13.9338 12.5063 13.6794 12.5063 13.4142C12.5063 13.149 12.6117 12.8946 12.7992 12.7071C12.9868 12.5196 13.2411 12.4142 13.5063 12.4142C13.7716 12.4142 14.0259 12.5196 14.2135 12.7071L36.3275 34.8212C36.515 35.0087 36.6204 35.2631 36.6204 35.5283C36.6204 35.7935 36.515 36.0478 36.3275 36.2354C36.14 36.4229 35.8856 36.5283 35.6204 36.5283C35.3552 36.5283 35.1008 36.4229 34.9133 36.2354Z" fill="white"/>
</svg>