<svg xmlns="http://www.w3.org/2000/svg" width="59" height="59" fill="none" viewBox="0 0 59 59"><path fill="#fff" d="m29.5.922.96 13.92A14.75 14.75 0 0 0 44.158 28.54l13.92.96-13.92.96A14.75 14.75 0 0 0 30.46 44.158l-.96 13.92-.96-13.92A14.75 14.75 0 0 0 14.842 30.46L.922 29.5l13.92-.96A14.75 14.75 0 0 0 28.54 14.842z"/><path fill="#fff" d="m.922.922 18.394 17.555a14.75 14.75 0 0 0 20.368 0L58.078.922 40.523 19.316a14.75 14.75 0 0 0 0 20.368l17.555 18.394-18.394-17.555a14.75 14.75 0 0 0-20.368 0L.922 58.078l17.555-18.394a14.75 14.75 0 0 0 0-20.368z"/></svg>