<svg xmlns="http://www.w3.org/2000/svg" width="20" height="20" viewBox="0 0 20 20" fill="none">
  <g clip-path="url(#clip0_188_1920)">
    <path d="M9.94141 1.21094C11.9735 1.21228 13.9428 1.91602 15.5155 3.20295C17.0882 4.48988 18.1677 6.28088 18.5711 8.27256C18.9746 10.2642 18.6772 12.3342 17.7293 14.1317C16.7814 15.9292 15.2413 17.3439 13.3699 18.1359C11.2198 19.0319 8.8023 19.0399 6.64623 18.1583C4.49016 17.2766 2.77093 15.5771 1.86452 13.4314C0.958113 11.2856 0.938283 8.8682 1.80937 6.70785C2.68046 4.5475 4.37157 2.82 6.51289 1.90313C7.59752 1.44408 8.76364 1.20866 9.94141 1.21094ZM9.94141 0.820312C4.86094 0.820312 0.742188 4.93906 0.742188 10.0195C0.742188 15.1 4.86094 19.2188 9.94141 19.2188C15.0219 19.2188 19.1406 15.1 19.1406 10.0195C19.1406 4.93906 15.0219 0.820312 9.94141 0.820312Z" fill="white" fill-opacity="1"/>
    <path d="M12.0607 10.3201L8.32765 6.58705L8.75192 6.16279L12.4849 9.8958L12.0607 10.3201Z" fill="white" fill-opacity="1"/>
    <path d="M12.3394 10.042L8.65108 13.7303L8.22682 13.306L11.9151 9.61773L12.3394 10.042Z" fill="white" fill-opacity="1"/>
  </g>
  <rect x="0.25" y="0.25" width="19.5" height="19.5" rx="9.75" stroke="white" stroke-opacity="1" stroke-width="0.5"/>
  <defs>
    <clipPath id="clip0_188_1920">
      <rect width="20" height="20" rx="10" fill="white"/>
    </clipPath>
  </defs>
</svg>