<svg xmlns="http://www.w3.org/2000/svg" width="20" height="20" fill="none" viewBox="0 0 20 20"><g fill="#fff" clip-path="url(#a)"><path d="M9.941 1.21a8.811 8.811 0 0 1 3.429 16.926A8.81 8.81 0 0 1 6.513 1.903a8.8 8.8 0 0 1 3.428-.692m0-.39a9.2 9.2 0 1 0 0 18.399 9.2 9.2 0 0 0 0-18.399"/><path d="M12.06 10.32 8.329 6.587l.424-.424 3.733 3.733z"/><path d="M12.34 10.042 8.65 13.73l-.424-.424 3.688-3.688z"/></g><rect width="19.5" height="19.5" x=".25" y=".25" stroke="#fff" stroke-width=".5" rx="9.75"/><defs><clipPath id="a"><rect width="20" height="20" fill="#fff" rx="10"/></clipPath></defs></svg>