<svg xmlns="http://www.w3.org/2000/svg" width="45" height="45" fill="none" viewBox="0 0 45 45"><g fill="#fff" fill-opacity=".8" clip-path="url(#a)"><path d="M30.002 16.579a4900 4900 0 0 0-10.954 9 .5.5 0 0 0-.136.183l.382 4.18c.503-.967 1-1.935 1.507-2.9a2.8 2.8 0 0 1 .385-.551q3.99-4.412 7.993-8.81.498-.552.989-1.108l-.06-.05c-.044.03-.08.056-.106.056"/><path d="M22.5 0a22.5 22.5 0 1 0 0 45 22.5 22.5 0 0 0 0-45m10.954 13.728c-.24 1.084-.48 2.185-.725 3.283l-3.005 13.51c-.246 1.095-.252 1.097-1.24.573-1.67-.888-3.343-1.758-5.004-2.664a.59.59 0 0 0-.779.071 355 355 0 0 1-3.552 3.005.388.388 0 0 1-.592-.133.6.6 0 0 1-.063-.22l-.518-5.456-.077-.035c-2.113-.838-4.221-1.7-6.332-2.552a2.4 2.4 0 0 1-.38-.163c-.094-.062-.245-.18-.233-.24a.47.47 0 0 1 .249-.275q1.894-.808 3.804-1.596l17.698-7.27c.127-.051.252-.11.385-.149.24-.074.385.05.364.311"/></g><defs><clipPath id="a"><path fill="#fff" d="M0 0h45v45H0z"/></clipPath></defs></svg>