<svg xmlns="http://www.w3.org/2000/svg" width="45" height="45" viewBox="0 0 45 45" fill="none">
  <g clip-path="url(#clip0_8329_454)">
    <path d="M22.5 0C10.0736 0 0 10.0736 0 22.5C0 34.9264 10.0736 45 22.5 45C34.9264 45 45 34.9264 45 22.5C45 10.0736 34.9264 0 22.5 0ZM34.485 30.1377H31.6299C31.3207 30.138 31.0153 30.0687 30.7366 29.9348C30.4579 29.8009 30.2129 29.6059 30.0199 29.3643C29.1637 28.2893 27.4769 26.3832 25.7058 25.5645C25.6032 25.5165 25.4902 25.4951 25.3772 25.5023C25.2641 25.5095 25.1548 25.5451 25.0591 25.6058C24.9635 25.6665 24.8847 25.7503 24.83 25.8495C24.7754 25.9487 24.7466 26.0601 24.7464 26.1734V28.9971C24.7464 29.1469 24.717 29.2952 24.6597 29.4336C24.6024 29.572 24.5184 29.6977 24.4125 29.8036C24.3066 29.9095 24.1809 29.9935 24.0425 30.0509C23.9042 30.1082 23.7559 30.1377 23.6061 30.1377H22.2859C20.569 30.1377 16.8718 29.0926 13.9258 24.8011C11.4157 21.1448 10.2967 18.3112 9.64424 16.0138C9.6063 15.8791 9.60009 15.7375 9.62609 15.6C9.65209 15.4626 9.70959 15.333 9.79409 15.2215C9.87858 15.11 9.98777 15.0196 10.1131 14.9574C10.2384 14.8952 10.3764 14.8629 10.5163 14.863H13.4046C13.6927 14.8628 13.9732 14.9555 14.2044 15.1275C14.4356 15.2995 14.6051 15.5415 14.6878 15.8176C15.2249 17.614 16.616 21.4892 19.075 23.4189C19.15 23.478 19.2401 23.5148 19.335 23.5251C19.4299 23.5354 19.5258 23.5188 19.6117 23.4772C19.6976 23.4356 19.7701 23.3706 19.8208 23.2897C19.8716 23.2089 19.8985 23.1153 19.8986 23.0199V18.4965C19.8986 17.6026 19.5112 16.7082 18.9065 16.0092C18.8194 15.9089 18.7629 15.7857 18.7439 15.6543C18.7248 15.5228 18.744 15.3887 18.7991 15.2678C18.8541 15.1469 18.9428 15.0445 19.0545 14.9726C19.1663 14.9008 19.2963 14.8626 19.4291 14.8626H23.8822C24.1115 14.8626 24.3314 14.9537 24.4935 15.1158C24.6557 15.2779 24.7468 15.4978 24.7468 15.7271V21.8202C24.7468 21.9084 24.7711 21.9949 24.817 22.0702C24.8629 22.1455 24.9287 22.2067 25.0071 22.2472C25.0854 22.2876 25.1734 22.3057 25.2614 22.2995C25.3494 22.2932 25.434 22.2629 25.5059 22.2118C26.3232 21.63 27.0233 20.7704 27.6672 19.8042C28.4775 18.5889 29.4664 16.5799 29.9624 15.5372C30.0585 15.3352 30.2098 15.1646 30.3989 15.0452C30.5879 14.9257 30.807 14.8623 31.0307 14.8623H34.1807C34.3122 14.8622 34.4416 14.8958 34.5565 14.9597C34.6715 15.0237 34.7682 15.1159 34.8375 15.2277C34.9068 15.3395 34.9464 15.4672 34.9525 15.5986C34.9587 15.7299 34.9312 15.8607 34.8726 15.9785C34.0777 17.5729 32.5295 20.4977 31.0727 22.2137C30.8641 22.4604 30.762 22.7799 30.7888 23.1019C30.8155 23.4238 30.9689 23.722 31.2153 23.931C32.165 24.7424 33.6475 26.2426 35.2459 28.7412C35.3341 28.878 35.3838 29.036 35.3898 29.1986C35.3958 29.3612 35.3579 29.5224 35.28 29.6653C35.2022 29.8082 35.0872 29.9275 34.9473 30.0106C34.8075 30.0937 34.6478 30.1376 34.485 30.1377Z" fill="white" fill-opacity="0.8"/>
  </g>
  <defs>
    <clipPath id="clip0_8329_454">
      <rect width="45" height="45" fill="white"/>
    </clipPath>
  </defs>
</svg>