<svg xmlns="http://www.w3.org/2000/svg" width="25" height="25" viewBox="0 0 25 25" fill="none">
  <g clip-path="url(#clip0_273_536)">
    <path d="M12.5 0.390625L12.9066 6.28906C13.0106 7.79416 13.6556 9.21084 14.7224 10.2776C15.7892 11.3444 17.2058 11.9894 18.7109 12.0934L24.6094 12.5L18.7109 12.9066C17.2058 13.0106 15.7892 13.6556 14.7224 14.7224C13.6556 15.7892 13.0106 17.2058 12.9066 18.7109L12.5 24.6094L12.0934 18.7109C11.9894 17.2058 11.3444 15.7892 10.2776 14.7224C9.21084 13.6556 7.79416 13.0106 6.28906 12.9066L0.390625 12.5L6.28906 12.0934C7.79416 11.9894 9.21084 11.3444 10.2776 10.2776C11.3444 9.21084 11.9894 7.79416 12.0934 6.28906L12.5 0.390625Z" fill="white"/>
    <path d="M0.390625 0.390625L8.18477 7.8293C9.34739 8.93896 10.8928 9.5581 12.5 9.5581C14.1072 9.5581 15.6526 8.93896 16.8152 7.8293L24.6094 0.390625L17.1707 8.18477C16.061 9.34739 15.4419 10.8928 15.4419 12.5C15.4419 14.1072 16.061 15.6526 17.1707 16.8152L24.6094 24.6094L16.8152 17.1707C15.6526 16.061 14.1072 15.4419 12.5 15.4419C10.8928 15.4419 9.34739 16.061 8.18477 17.1707L0.390625 24.6094L7.8293 16.8152C8.93896 15.6526 9.5581 14.1072 9.5581 12.5C9.5581 10.8928 8.93896 9.34739 7.8293 8.18477L0.390625 0.390625Z" fill="white"/>
  </g>
  <defs>
    <clipPath id="clip0_273_536">
      <rect width="25" height="25" fill="white"/>
    </clipPath>
  </defs>
</svg>