<svg width="26" height="26" viewBox="0 0 26 26" fill="none" xmlns="http://www.w3.org/2000/svg">
<path d="M24.2354 2.30588L2.12132 24.4199C1.93378 24.6075 1.67943 24.7128 1.41421 24.7128C1.149 24.7128 0.894643 24.6075 0.707107 24.4199C0.51957 24.2324 0.414214 23.978 0.414214 23.7128C0.414214 23.4476 0.51957 23.1933 0.707107 23.0057L22.8212 0.891664C23.0087 0.704128 23.2631 0.598772 23.5283 0.598771C23.7935 0.598769 24.0478 0.704128 24.2354 0.891664C24.4229 1.0792 24.5283 1.33355 24.5283 1.59877C24.5283 1.86399 24.4229 2.11834 24.2354 2.30588Z" fill="white"/>
<path d="M22.9128 24.2354L0.798753 2.12132C0.611216 1.93378 0.505859 1.67943 0.505859 1.41421C0.505859 1.149 0.611216 0.894643 0.798753 0.707107C0.986289 0.51957 1.24064 0.414213 1.50586 0.414213C1.77108 0.414213 2.02543 0.51957 2.21297 0.707107L24.327 22.8212C24.5146 23.0087 24.6199 23.2631 24.6199 23.5283C24.6199 23.7935 24.5146 24.0478 24.327 24.2354C24.1395 24.4229 23.8851 24.5283 23.6199 24.5283C23.3547 24.5283 23.1003 24.4229 22.9128 24.2354Z" fill="white"/>
</svg>
