<svg xmlns="http://www.w3.org/2000/svg" width="45" height="45" fill="none" viewBox="0 0 45 45"><path fill="#fff" fill-opacity=".8" fill-rule="evenodd" d="M23.027 1.67a21.043 21.043 0 0 1 21.094 21.094 21.043 21.043 0 0 1-21.094 21.093A21.043 21.043 0 0 1 1.934 22.764 21.043 21.043 0 0 1 23.027 1.67m-7.03 28.3h-.44c-2.637 0-4.747-3.251-4.747-7.206s2.11-7.207 4.747-7.207h15.469c2.46.351 4.306 3.427 4.306 7.207s-1.934 6.855-4.307 7.207H15.996m4.306-11.161v7.91l5.449-4.131z" clip-rule="evenodd"/></svg>